<svg width="21" height="22" viewBox="0 0 21 22" fill="none" xmlns="http://www.w3.org/2000/svg">
<path fill-rule="evenodd" clip-rule="evenodd" d="M10.5 21.7734C4.70072 21.7734 0 17.0727 0 11.2734C0 5.47416 4.70072 0.773438 10.5 0.773438C16.2993 0.773438 21 5.47416 21 11.2734C21 17.0727 16.2993 21.7734 10.5 21.7734ZM11.7613 9.82509V8.27241H15.3142V5.90466H5.64047V8.27241H9.19341V9.82444C6.30591 9.957 4.13438 10.5293 4.13438 11.2144C4.13438 11.8995 6.30591 12.4711 9.19341 12.6043V17.58H11.7613V12.603C14.6442 12.4704 16.8105 11.8988 16.8105 11.2144C16.8105 10.5299 14.6442 9.95831 11.7613 9.82509ZM11.7613 12.181V12.1797C11.6891 12.185 11.317 12.2073 10.4869 12.2073C9.82406 12.2073 9.35747 12.1876 9.19341 12.1797V12.1817C6.64191 12.0695 4.73747 11.6252 4.73747 11.0936C4.73747 10.5627 6.64191 10.1184 9.19341 10.0042V11.7394C9.36009 11.7512 9.83784 11.7794 10.498 11.7794C11.2901 11.7794 11.6872 11.7466 11.7613 11.74V10.0056C14.3076 10.1191 16.2074 10.5634 16.2074 11.0936C16.2074 11.6252 14.3076 12.0682 11.7613 12.181Z" fill="#3CC13B"/>
</svg>
