<svg width="234" height="174" viewBox="0 0 234 174" fill="none" xmlns="http://www.w3.org/2000/svg">
<g opacity="0.65">
<path opacity="0.4" d="M152.005 38.2259L86.3174 152.574C83.8555 156.86 78.0668 157.916 74.2395 154.657C61.0179 143.284 51.0206 128.327 46.4881 111.411L37.4438 77.6577C35.7544 71.3528 38.5848 62.9304 43.7642 58.988L81.7076 30.0319C90.282 23.4492 101 20.5774 111.717 21.991L146.044 26.3905C151.729 27.0921 154.802 33.3558 152.005 38.2259Z" fill="#292D32"/>
<path d="M162.023 46.8315C165.866 41.2694 174.413 42.8523 176.165 49.3878L182.984 74.8377C193.058 112.436 175.318 154.933 140.95 175.184C138.609 176.553 135.853 177.292 133.065 177.297C121.37 177.135 109.884 174.691 99.4206 170.243C94.9837 168.382 93.1589 163.103 95.4883 158.935C107.583 137.317 143.033 74.2528 162.023 46.8315Z" fill="#292D32"/>
</g>
</svg>
