<svg width="17" height="14" viewBox="0 0 17 14" fill="none" xmlns="http://www.w3.org/2000/svg">
<path d="M4.03033 1.53033C4.32322 1.23744 4.32322 0.762563 4.03033 0.46967C3.73744 0.176777 3.26256 0.176777 2.96967 0.46967L0.96967 2.46967C0.676777 2.76256 0.676777 3.23744 0.96967 3.53033L2.96967 5.53033C3.26256 5.82322 3.73744 5.82322 4.03033 5.53033C4.32322 5.23744 4.32322 4.76256 4.03033 4.46967L3.31066 3.75H13.5C13.9142 3.75 14.25 3.41421 14.25 3C14.25 2.58579 13.9142 2.25 13.5 2.25H3.31066L4.03033 1.53033Z" fill="black"/>
<path d="M12.9697 8.46967C12.6768 8.76256 12.6768 9.23744 12.9697 9.53033L13.6893 10.25H3.5C3.08579 10.25 2.75 10.5858 2.75 11C2.75 11.4142 3.08579 11.75 3.5 11.75H13.6893L12.9697 12.4697C12.6768 12.7626 12.6768 13.2374 12.9697 13.5303C13.2626 13.8232 13.7374 13.8232 14.0303 13.5303L16.0303 11.5303C16.3232 11.2374 16.3232 10.7626 16.0303 10.4697L14.0303 8.46967C13.7374 8.17678 13.2626 8.17678 12.9697 8.46967Z" fill="black"/>
</svg>
