<svg width="68" height="69" viewBox="0 0 68 69" fill="none" xmlns="http://www.w3.org/2000/svg">
<rect width="68" height="69" rx="8" fill="url(#paint0_linear_752_12528)"/>
<path opacity="0.4" d="M49.835 33.3857V33.3869C49.835 42.119 43.4846 50.3243 34.8018 52.7233C34.2839 52.8642 33.716 52.8642 33.1981 52.7233C24.5154 50.3243 18.165 42.119 18.165 33.3869V25.3386C18.165 24.7064 18.4072 23.9997 18.8247 23.3786C19.2422 22.7575 19.8062 22.2648 20.4001 22.0257L20.4001 22.0257L20.4028 22.0246L30.6138 17.8449C30.6139 17.8448 30.614 17.8448 30.6141 17.8448C32.7845 16.9593 35.2336 16.9593 37.404 17.8447C37.4041 17.8448 37.4043 17.8448 37.4044 17.8449L47.6156 22.0246L47.6161 22.0249C48.202 22.2639 48.767 22.7573 49.1874 23.3795C49.6076 24.0015 49.8531 24.7074 49.8533 25.3375C49.8533 25.3379 49.8533 25.3382 49.8533 25.3386L49.835 33.3857Z" fill="#F4F4F5" stroke="url(#paint1_linear_752_12528)"/>
<path d="M33.125 36.5953V36.2292L32.776 36.1187C31.1207 35.5942 29.9167 34.0739 29.9167 32.2503C29.9167 29.9965 31.7462 28.167 34 28.167C36.2539 28.167 38.0834 29.9965 38.0834 32.2503C38.0834 34.0739 36.8794 35.5942 35.224 36.1187L34.875 36.2292V36.5953V41.417C34.875 41.8925 34.4755 42.292 34 42.292C33.5245 42.292 33.125 41.8925 33.125 41.417V36.5953Z" fill="#F4F4F5" stroke="url(#paint2_linear_752_12528)"/>
<defs>
<linearGradient id="paint0_linear_752_12528" x1="-1.15419e-07" y1="9.34375" x2="77.0779" y2="25.3874" gradientUnits="userSpaceOnUse">
<stop stop-color="#20709B"/>
<stop offset="1" stop-color="#1E4097"/>
</linearGradient>
<linearGradient id="paint1_linear_752_12528" x1="17.665" y1="21.6435" x2="54.9976" y2="28.6765" gradientUnits="userSpaceOnUse">
<stop stop-color="#20709B"/>
<stop offset="1" stop-color="#1E4097"/>
</linearGradient>
<linearGradient id="paint2_linear_752_12528" x1="29.4167" y1="29.7152" x2="40.0825" y2="31.0805" gradientUnits="userSpaceOnUse">
<stop stop-color="#20709B"/>
<stop offset="1" stop-color="#1E4097"/>
</linearGradient>
</defs>
</svg>
