<svg width="121" height="36" viewBox="0 0 121 36" fill="none" xmlns="http://www.w3.org/2000/svg">
<g clip-path="url(#clip0_1314_16394)">
<path d="M31.9494 0.5H6.79775C3.04346 0.5 0 3.51347 0 7.23077V28.7692C0 32.4865 3.04346 35.5 6.79775 35.5H31.9494C35.7038 35.5 38.7472 32.4865 38.7472 28.7692V7.23077C38.7472 3.51347 35.7038 0.5 31.9494 0.5Z" fill="url(#paint0_linear_1314_16394)"/>
<path d="M9.10893 25.1297L9.10754 22.5459L28.6237 22.5371C28.6245 23.9641 27.3401 25.1214 25.7551 25.1222L9.10893 25.1297Z" fill="url(#paint1_radial_1314_16394)"/>
<path d="M20.1667 19.7049C20.1671 20.5526 19.4395 21.2401 18.5415 21.2406C17.6435 21.241 16.9152 20.5541 16.9147 19.7065L16.914 18.325C16.9132 16.7145 18.2957 15.4081 20.0019 15.4073L20.1644 15.4072L20.1667 19.7049Z" fill="url(#paint2_radial_1314_16394)"/>
<path d="M24.7204 19.7356C24.7208 20.5665 24.1389 21.2404 23.4208 21.2409C22.7027 21.2413 22.1203 20.568 22.1199 19.7371L22.1183 15.8255C22.1176 14.1636 23.2813 12.8158 24.7175 12.8149L24.7204 19.7356Z" fill="url(#paint3_radial_1314_16394)"/>
<path d="M29.2742 19.7511C29.2746 20.5733 28.693 21.2403 27.9752 21.2407C27.2574 21.2411 26.6752 20.5748 26.6749 19.7525L26.6721 13.2014C26.6714 11.5568 27.8346 10.223 29.2701 10.2222L29.2742 19.7511Z" fill="url(#paint4_radial_1314_16394)"/>
<path d="M53.2182 25.6123C52.3753 25.6123 51.6095 25.4175 50.9213 25.028C50.2469 24.6246 49.713 24.0891 49.3197 23.4214V25.4036H47.2756V10.1719H49.5937V16.5567C50.0291 15.8612 50.5702 15.3117 51.2163 14.9083C51.8767 14.5049 52.6493 14.3032 53.5343 14.3032C54.2647 14.3032 54.9323 14.4562 55.5363 14.7623C56.1402 15.0683 56.6531 15.4856 57.0746 16.0142C57.51 16.5428 57.8404 17.1479 58.065 17.8295C58.304 18.5111 58.4233 19.2344 58.4233 19.9995C58.4233 20.7645 58.2897 21.4879 58.0229 22.1695C57.77 22.8511 57.4046 23.4492 56.9271 23.9639C56.4495 24.4786 55.8945 24.882 55.2623 25.1741C54.6441 25.4662 53.9629 25.6123 53.2182 25.6123ZM52.6071 23.6509C53.1129 23.6509 53.5765 23.5536 53.9979 23.3588C54.4194 23.1501 54.7848 22.8789 55.0937 22.545C55.4027 22.2112 55.6345 21.8217 55.7891 21.3766C55.9577 20.9314 56.042 20.4724 56.042 19.9995C56.042 19.3457 55.9016 18.7337 55.6206 18.1633C55.3537 17.593 54.9744 17.1339 54.4826 16.7862C53.9908 16.4385 53.4218 16.2646 52.7757 16.2646C52.3121 16.2646 51.8767 16.3759 51.4692 16.5984C51.0616 16.8071 50.6966 17.0922 50.3734 17.4539C50.0644 17.8016 49.8044 18.1911 49.5937 18.6224V21.5018C49.678 21.8217 49.8255 22.1138 50.0362 22.3781C50.2469 22.6285 50.4927 22.8511 50.7738 23.0458C51.0548 23.2266 51.3567 23.3727 51.6799 23.484C52.0031 23.5953 52.3121 23.6509 52.6071 23.6509ZM60.7427 21.1679V14.491H63.0607V20.7089C63.0607 21.6826 63.2361 22.4199 63.5875 22.9206C63.9526 23.4075 64.4794 23.6509 65.168 23.6509C65.6034 23.6509 66.0249 23.5605 66.4324 23.3797C66.8538 23.1988 67.2332 22.9345 67.5703 22.5868C67.9214 22.2251 68.2025 21.7939 68.4132 21.2931V14.491H70.7313V22.8163C70.7313 23.0806 70.7802 23.2684 70.8788 23.3797C70.977 23.491 71.1385 23.5536 71.3635 23.5675V25.4036C71.1245 25.4453 70.9277 25.4732 70.7734 25.4871C70.6188 25.501 70.4713 25.5079 70.3309 25.5079C69.9094 25.5079 69.558 25.3966 69.2772 25.1741C68.9962 24.9376 68.8347 24.6386 68.7926 24.2769L68.7504 23.1919C68.2586 23.9848 67.6193 24.5899 66.8328 25.0072C66.0459 25.4106 65.1819 25.6123 64.2408 25.6123C63.0886 25.6123 62.2178 25.2367 61.6277 24.4855C61.0377 23.7344 60.7427 22.6285 60.7427 21.1679ZM74.3878 27.9701C74.5985 27.9979 74.8025 28.0257 74.9989 28.0535C75.2096 28.0952 75.3782 28.1161 75.5047 28.1161C75.7436 28.1161 75.9472 28.0396 76.1158 27.8866C76.2986 27.7475 76.4812 27.4832 76.6637 27.0937C76.8465 26.7042 77.0712 26.1409 77.338 25.4036L72.8073 14.491H75.2307L78.6024 23.0667L81.5948 14.491H83.8285L78.8342 27.9283C78.6799 28.3317 78.4549 28.7003 78.1599 29.0342C77.8648 29.3819 77.4998 29.6532 77.0641 29.8479C76.6287 30.0427 76.1158 30.14 75.5257 30.14C75.3572 30.14 75.1818 30.1262 74.9989 30.0983C74.8164 30.0705 74.6128 30.0288 74.3878 29.9731V27.9701ZM85.894 10.1719H88.212V22.2529C88.212 22.8093 88.2963 23.164 88.4649 23.3171C88.6335 23.4701 88.8442 23.5466 89.0971 23.5466C89.3779 23.5466 89.6379 23.5188 89.8768 23.4631C90.1297 23.4075 90.3472 23.3379 90.5301 23.2545L90.8672 25.0698C90.5301 25.2089 90.1297 25.3271 89.6661 25.4245C89.2025 25.5218 88.7878 25.5705 88.4228 25.5705C87.6359 25.5705 87.0177 25.3549 86.5684 24.9237C86.1187 24.4786 85.894 23.8665 85.894 23.0875V10.1719ZM92.5511 25.4036V14.491H94.8691V25.4036H92.5511ZM92.5511 12.6966V10.1719H94.8691V12.6966H92.5511ZM101.914 25.6123C100.987 25.6123 100.109 25.4662 99.2801 25.1741C98.4512 24.8681 97.7418 24.416 97.1518 23.8178L98.0158 22.2738C98.648 22.8302 99.2801 23.2336 99.9123 23.484C100.558 23.7344 101.198 23.8596 101.83 23.8596C102.476 23.8596 103.003 23.7413 103.41 23.5049C103.818 23.2545 104.022 22.8928 104.022 22.4199C104.022 22.0721 103.916 21.8148 103.705 21.6478C103.495 21.4809 103.185 21.3349 102.778 21.2097C102.385 21.0845 101.907 20.9454 101.345 20.7924C100.558 20.5559 99.8981 20.3125 99.3644 20.0621C98.8305 19.7978 98.4301 19.4778 98.1633 19.1023C97.8961 18.7267 97.7629 18.2468 97.7629 17.6625C97.7629 16.9531 97.9454 16.348 98.3108 15.8473C98.6758 15.3465 99.1816 14.9639 99.828 14.6997C100.488 14.4354 101.247 14.3032 102.104 14.3032C102.905 14.3032 103.642 14.4284 104.317 14.6788C105.005 14.9153 105.609 15.2909 106.129 15.8055L105.138 17.3287C104.647 16.8836 104.141 16.5567 103.621 16.348C103.115 16.1394 102.568 16.035 101.977 16.035C101.64 16.035 101.317 16.0768 101.008 16.1602C100.699 16.2298 100.439 16.3689 100.228 16.5775C100.032 16.7723 99.9334 17.0505 99.9334 17.4122C99.9334 17.7043 100.018 17.9408 100.186 18.1216C100.355 18.3024 100.608 18.4554 100.945 18.5806C101.282 18.7058 101.696 18.8449 102.188 18.9979C103.045 19.2483 103.776 19.4987 104.38 19.7491C104.984 19.9856 105.447 20.2986 105.771 20.688C106.108 21.0636 106.276 21.5852 106.276 22.2529C106.276 23.3101 105.876 24.1378 105.075 24.7359C104.288 25.3201 103.235 25.6123 101.914 25.6123ZM114.797 24.8402C114.601 24.9376 114.355 25.0419 114.06 25.1532C113.765 25.2645 113.428 25.3619 113.048 25.4453C112.683 25.5288 112.304 25.5705 111.91 25.5705C111.433 25.5705 110.99 25.4871 110.583 25.3201C110.176 25.1532 109.845 24.8889 109.592 24.5273C109.354 24.1517 109.234 23.6718 109.234 23.0875V16.2646H107.78V14.491H109.234V10.9022H111.552V14.491H113.954V16.2646H111.552V22.3573C111.58 22.7328 111.7 23.0111 111.91 23.1919C112.135 23.3727 112.409 23.4631 112.732 23.4631C113.055 23.4631 113.364 23.4075 113.659 23.2962C113.954 23.1849 114.172 23.0945 114.313 23.025L114.797 24.8402Z" fill="#3F3F46"/>
</g>
<defs>
<linearGradient id="paint0_linear_1314_16394" x1="-6.5767e-08" y1="5.23958" x2="43.4474" y2="15.3986" gradientUnits="userSpaceOnUse">
<stop stop-color="#20709B"/>
<stop offset="1" stop-color="#1E4097"/>
</linearGradient>
<radialGradient id="paint1_radial_1314_16394" cx="0" cy="0" r="1" gradientUnits="userSpaceOnUse" gradientTransform="translate(22.0182 24.7823) rotate(-168.205) scale(9.75386 5.55803)">
<stop stop-color="#E6FAFF"/>
<stop offset="0.552083" stop-color="#FFF1F1"/>
<stop offset="1" stop-color="#FEFDF8"/>
</radialGradient>
<radialGradient id="paint2_radial_1314_16394" cx="0" cy="0" r="1" gradientUnits="userSpaceOnUse" gradientTransform="translate(19.0658 20.459) rotate(-109.53) scale(4.76007 4.27086)">
<stop stop-color="#E6FAFF"/>
<stop offset="0.552083" stop-color="#FFF1F1"/>
<stop offset="1" stop-color="#FEFDF8"/>
</radialGradient>
<radialGradient id="paint3_radial_1314_16394" cx="0" cy="0" r="1" gradientUnits="userSpaceOnUse" gradientTransform="translate(23.8397 20.1119) rotate(-101.115) scale(6.60394 3.55727)">
<stop stop-color="#E6FAFF"/>
<stop offset="0.552083" stop-color="#FFF1F1"/>
<stop offset="1" stop-color="#FEFDF8"/>
</radialGradient>
<radialGradient id="paint4_radial_1314_16394" cx="0" cy="0" r="1" gradientUnits="userSpaceOnUse" gradientTransform="translate(28.3935 19.7643) rotate(-98.5437) scale(8.56903 3.58504)">
<stop stop-color="#E6FAFF"/>
<stop offset="0.552083" stop-color="#FFF1F1"/>
<stop offset="1" stop-color="#FEFDF8"/>
</radialGradient>
<clipPath id="clip0_1314_16394">
<rect width="121" height="35" fill="white" transform="translate(0 0.5)"/>
</clipPath>
</defs>
</svg>
