<svg width="68" height="69" viewBox="0 0 68 69" fill="none" xmlns="http://www.w3.org/2000/svg">
<rect width="68" height="69" rx="8" fill="url(#paint0_linear_752_12528)"/>
<path fill-rule="evenodd" clip-rule="evenodd" d="M35.1821 22.6502C34.4548 22.2123 33.5451 22.2123 32.8178 22.6502L31.8712 23.2202C29.339 24.745 26.4962 25.6807 23.5533 25.9579L22.957 26.0141C22.7215 26.0363 22.5416 26.2339 22.5416 26.4704V29.4842C22.5416 34.0814 24.408 38.4815 27.7132 41.6767L33.6814 47.4463C33.8591 47.618 34.1409 47.618 34.3185 47.4463L40.2867 41.6768C43.5919 38.4815 45.4583 34.0814 45.4583 29.4842V26.4704C45.4583 26.2339 45.2784 26.0363 45.043 26.0141L44.4466 25.9579C41.5037 25.6807 38.6609 24.745 36.1287 23.2202L35.1821 22.6502ZM31.3992 20.2944C32.9992 19.3309 35.0007 19.3309 36.6007 20.2944L37.5473 20.8643C39.7262 22.1764 42.1723 22.9815 44.7045 23.22L45.3009 23.2762C46.9489 23.4315 48.2083 24.8151 48.2083 26.4704V29.4842C48.2083 34.8268 46.0392 39.9406 42.198 43.6539L36.2299 49.4234C34.9863 50.6256 33.0136 50.6256 31.77 49.4234L25.8019 43.6539C21.9607 39.9406 19.7916 34.8268 19.7916 29.4842V26.4704C19.7916 24.8151 21.051 23.4315 22.699 23.2762L23.2954 23.22C25.8276 22.9815 28.2737 22.1764 30.4527 20.8643L31.3992 20.2944Z" fill="white"/>
<defs>
<linearGradient id="paint0_linear_752_12528" x1="-1.15419e-07" y1="9.34375" x2="77.0779" y2="25.3874" gradientUnits="userSpaceOnUse">
<stop stop-color="#20709B"/>
<stop offset="1" stop-color="#1E4097"/>
</linearGradient>
</defs>
</svg>
