<svg width="68" height="69" viewBox="0 0 68 69" fill="none" xmlns="http://www.w3.org/2000/svg">
<rect width="68" height="69" rx="8" fill="url(#paint0_linear_752_12535)"/>
<path fill-rule="evenodd" clip-rule="evenodd" d="M36.1168 19.1606C34.8864 18.5185 33.2192 18.5086 31.979 19.1491C27.2252 21.6042 22.9135 24.4191 19.135 27.5413C18.5507 28.0241 18.1361 28.7257 18.1431 29.5515C18.1502 30.374 18.5733 31.0662 19.154 31.541C22.9011 34.6049 27.2164 37.4223 31.8831 39.858C33.1135 40.5002 34.7807 40.5101 36.021 39.8696C40.7747 37.4145 45.0865 34.5995 48.8649 31.4773C49.4492 30.9945 49.8639 30.2929 49.8568 29.4671C49.8498 28.6447 49.4267 27.9525 48.8459 27.4776C45.0989 24.4138 40.7835 21.5963 36.1168 19.1606ZM33.2409 21.5925C33.6803 21.3655 34.402 21.3677 34.8444 21.5986C39.2982 23.9231 43.4019 26.5974 46.9572 29.4859C43.3807 32.4209 39.2892 35.0866 34.7591 37.4262C34.3197 37.6531 33.5979 37.651 33.1555 37.4201C28.7018 35.0956 24.598 32.4213 21.0428 29.5327C24.6192 26.5977 28.7108 23.9321 33.2409 21.5925Z" fill="white"/>
<path d="M50.8612 36.2799C51.2634 36.924 51.0672 37.7722 50.423 38.1744L39.2264 45.1647C37.7071 46.1133 35.822 46.5518 33.9998 46.552C32.1776 46.5521 30.2925 46.1137 28.7729 45.1654L17.699 38.2541C17.0547 37.8521 16.8584 37.0039 17.2605 36.3597C17.6625 35.7155 18.5107 35.5191 19.1549 35.9212L30.2289 42.8324C31.2265 43.455 32.5817 43.802 33.9997 43.802C35.4176 43.8019 36.7727 43.4547 37.7701 42.832L48.9667 35.8417C49.6108 35.4395 50.459 35.6357 50.8612 36.2799Z" fill="white"/>
<path d="M50.8611 43.1634C51.2634 43.8075 51.0673 44.6557 50.4232 45.058L40.7268 51.1132C38.7879 52.3241 36.3624 52.8938 33.9997 52.894C31.6371 52.8941 29.2115 52.3247 27.2722 51.1141L17.6988 45.1377C17.0546 44.7356 16.8584 43.8874 17.2606 43.2432C17.6627 42.599 18.5109 42.4028 19.1551 42.805L28.7285 48.7813C30.1457 49.666 32.0412 50.1441 33.9996 50.144C35.9579 50.1438 37.8533 49.6655 39.2702 48.7807L48.9665 42.7255C49.6106 42.3232 50.4589 42.5193 50.8611 43.1634Z" fill="white"/>
<defs>
<linearGradient id="paint0_linear_752_12535" x1="68" y1="55.5" x2="18.5337" y2="70.0318" gradientUnits="userSpaceOnUse">
<stop stop-color="#36D663"/>
<stop offset="1" stop-color="#179633" stop-opacity="0.72"/>
</linearGradient>
</defs>
</svg>
