<svg width="69" height="69" viewBox="0 0 69 69" fill="none" xmlns="http://www.w3.org/2000/svg">
<rect x="0.5" width="68" height="69" rx="8" fill="url(#paint0_linear_752_12521)"/>
<path d="M31.75 42.3333C31.75 40.8145 32.9813 39.5833 34.5 39.5833C36.0188 39.5833 37.25 40.8145 37.25 42.3333C37.25 43.8521 36.0188 45.0833 34.5 45.0833C32.9813 45.0833 31.75 43.8521 31.75 42.3333Z" fill="white"/>
<path fill-rule="evenodd" clip-rule="evenodd" d="M30.4859 20.3424C30.9119 20.1728 31.3563 20.0537 31.8101 19.9876C34.511 19.5941 37.1266 21.1154 38.1199 23.6578L38.2574 24.0098C38.4278 24.446 38.5494 24.8998 38.6199 25.3628L39.0171 27.9703L41.7357 27.5563L41.3386 24.9487C41.2375 24.285 41.0632 23.6345 40.8189 23.0091L40.6813 22.657C39.2224 18.9229 35.3807 16.6883 31.4135 17.2664C30.7471 17.3635 30.0944 17.5384 29.4687 17.7875C25.744 19.2705 23.5343 23.1265 24.1379 27.0898L24.1948 27.4635C24.2959 28.1272 24.4702 28.7777 24.7145 29.4031L25.9138 32.4727L25.2144 32.5285C23.2294 32.687 21.6086 34.1792 21.2868 36.1443C20.6157 40.243 20.6157 44.4236 21.2868 48.5223C21.6086 50.4874 23.2294 51.9796 25.2144 52.138L27.9573 52.357C32.3122 52.7047 36.6879 52.7047 41.0427 52.357L43.7856 52.138C45.7706 51.9796 47.3915 50.4874 47.7133 48.5223C48.3844 44.4236 48.3844 40.243 47.7133 36.1443C47.3915 34.1792 45.7706 32.687 43.7856 32.5285L41.0427 32.3096C36.9615 31.9837 32.862 31.9633 28.7785 32.2481L27.276 28.4024C27.1056 27.9662 26.984 27.5124 26.9135 27.0494L26.8566 26.6758C26.4456 23.9774 27.95 21.3521 30.4859 20.3424ZM40.8239 35.0508C36.6147 34.7148 32.3854 34.7148 28.1762 35.0508L25.4333 35.2698C24.7092 35.3276 24.118 35.8719 24.0007 36.5887C23.3777 40.3931 23.3777 44.2735 24.0007 48.0779C24.118 48.7947 24.7092 49.339 25.4333 49.3968L28.1762 49.6157C32.3854 49.9518 36.6147 49.9518 40.8239 49.6157L43.5668 49.3968C44.2908 49.339 44.8821 48.7947 44.9994 48.0779C45.6224 44.2735 45.6224 40.3931 44.9994 36.5887C44.8821 35.8719 44.2908 35.3276 43.5668 35.2698L40.8239 35.0508Z" fill="white"/>
<defs>
<linearGradient id="paint0_linear_752_12521" x1="0.5" y1="0" x2="58.6748" y2="-20.387" gradientUnits="userSpaceOnUse">
<stop stop-color="#D67036"/>
<stop offset="1" stop-color="#F78D11" stop-opacity="0.72"/>
</linearGradient>
</defs>
</svg>
