<svg width="52" height="48" viewBox="0 0 52 48" fill="none" xmlns="http://www.w3.org/2000/svg">
<path d="M42.8772 0H9.12281C4.08442 0 0 4.13275 0 9.23077V38.7692C0 43.8672 4.08442 48 9.12281 48H42.8772C47.9157 48 52 43.8672 52 38.7692V9.23077C52 4.13275 47.9157 0 42.8772 0Z" fill="url(#paint0_linear_12_11221)"/>
<path d="M12.7819 32.782L12.78 28.9506L38.804 28.9375C38.805 31.0535 37.0924 32.7698 34.9788 32.7709L12.7819 32.782Z" fill="white"/>
<path d="M26.938 24.7283C26.9385 25.7863 26.0822 26.6444 25.0254 26.6449C23.9687 26.6455 23.1115 25.7882 23.111 24.7302L23.1101 23.006C23.1091 20.9958 24.7361 19.3654 26.744 19.3644L26.9354 19.3643L26.938 24.7283Z" fill="white"/>
<path d="M33.0614 24.7254C33.062 25.7834 32.2056 26.6415 31.1489 26.6421C30.092 26.6426 29.2349 25.7853 29.2344 24.7273L29.2319 19.7464C29.2309 17.6304 30.9435 15.9141 33.0571 15.9131L33.0614 24.7254Z" fill="white"/>
<path d="M39.1847 24.7225C39.1852 25.7805 38.3289 26.6386 37.2721 26.6392C36.2153 26.6397 35.3582 25.7824 35.3577 24.7244L35.3535 16.2953C35.3525 14.1793 37.0651 12.463 39.1787 12.4619L39.1847 24.7225Z" fill="white"/>
<defs>
<linearGradient id="paint0_linear_12_11221" x1="2.13333e-08" y1="6.49998" x2="58.4364" y2="19.8708" gradientUnits="userSpaceOnUse">
<stop stop-color="#20709B"/>
<stop offset="1" stop-color="#1E4097"/>
</linearGradient>
</defs>
</svg>
