<svg width="9" height="14" viewBox="0 0 9 14" fill="none" xmlns="http://www.w3.org/2000/svg">
<g clip-path="url(#clip0_1340_13239)">
<path d="M4.50135 0L4.59961 0.318945V9.57399L4.50135 9.66765L0.00268364 7.12825L4.50135 0Z" fill="#343434"/>
<path d="M4.50134 0L9 7.12825L4.50134 9.66769V5.17557V0Z" fill="#8C8C8C"/>
<path d="M4.50127 10.4815L4.55664 10.5459V13.8428L4.50127 13.9973L-6.62804e-05 7.94336L4.50127 10.4815Z" fill="#3C3C3B"/>
<path d="M4.50134 13.9973V10.4815L9 7.94336L4.50134 13.9973Z" fill="#8C8C8C"/>
<path d="M4.50146 9.66783L0.00287104 7.12846L4.50146 5.17578V9.66783Z" fill="#141414"/>
<path d="M9 7.12846L4.50141 9.66783V5.17578L9 7.12846Z" fill="#393939"/>
</g>
<defs>
<clipPath id="clip0_1340_13239">
<rect width="9" height="14" fill="white" transform="matrix(-1 0 0 1 9 0)"/>
</clipPath>
</defs>
</svg>
