<svg width="12" height="10" viewBox="0 0 12 10" fill="none" xmlns="http://www.w3.org/2000/svg">
<path d="M3.02038 1.35355C3.21564 1.15829 3.21564 0.841709 3.02038 0.646447C2.82512 0.451184 2.50854 0.451184 2.31328 0.646447L0.979943 1.97978C0.784681 2.17504 0.784681 2.49162 0.979943 2.68689L2.31328 4.02022C2.50854 4.21548 2.82512 4.21548 3.02038 4.02022C3.21564 3.82496 3.21564 3.50838 3.02038 3.31311L2.5406 2.83333H9.3335C9.60964 2.83333 9.8335 2.60948 9.8335 2.33333C9.8335 2.05719 9.60964 1.83333 9.3335 1.83333H2.5406L3.02038 1.35355Z" fill="black"/>
<path d="M8.97994 5.97978C8.78468 6.17504 8.78468 6.49163 8.97994 6.68689L9.45972 7.16667H2.66683C2.39069 7.16667 2.16683 7.39052 2.16683 7.66667C2.16683 7.94281 2.39069 8.16667 2.66683 8.16667H9.45972L8.97994 8.64645C8.78468 8.84171 8.78468 9.15829 8.97994 9.35355C9.1752 9.54882 9.49179 9.54882 9.68705 9.35355L11.0204 8.02022C11.2156 7.82496 11.2156 7.50838 11.0204 7.31311L9.68705 5.97978C9.49179 5.78452 9.1752 5.78452 8.97994 5.97978Z" fill="black"/>
</svg>
