<svg width="19" height="19" viewBox="0 0 19 19" fill="none" xmlns="http://www.w3.org/2000/svg">
<path d="M15.6667 0.5H3.33333C1.49238 0.5 0 2.04978 0 3.96154V15.0385C0 16.9502 1.49238 18.5 3.33333 18.5H15.6667C17.5077 18.5 19 16.9502 19 15.0385V3.96154C19 2.04978 17.5077 0.5 15.6667 0.5Z" fill="url(#paint0_linear_1342_13266)"/>
<path d="M4.67013 12.7933L4.66943 11.3565L14.1782 11.3516C14.1786 12.1451 13.5528 12.7887 12.7805 12.7891L4.67013 12.7933Z" fill="white"/>
<path d="M9.84251 9.77322C9.8427 10.17 9.52981 10.4918 9.14368 10.492C8.75755 10.4922 8.44435 10.1707 8.44416 9.77395L8.44385 9.12738C8.4435 8.37355 9.03796 7.76213 9.77163 7.76175L9.84155 7.76172L9.84251 9.77322Z" fill="white"/>
<path d="M12.0799 9.77336C12.0801 10.1701 11.7672 10.4919 11.3811 10.4921C10.9949 10.4923 10.6817 10.1708 10.6816 9.77409L10.6807 7.90626C10.6803 7.11275 11.306 6.46915 12.0783 6.46875L12.0799 9.77336Z" fill="white"/>
<path d="M14.3173 9.77155C14.3175 10.1683 14.0046 10.4901 13.6185 10.4903C13.2324 10.4905 12.9192 10.169 12.919 9.77227L12.9175 6.61134C12.9171 5.81783 13.5429 5.17423 14.3151 5.17383L14.3173 9.77155Z" fill="white"/>
<defs>
<linearGradient id="paint0_linear_1342_13266" x1="7.79486e-09" y1="2.93749" x2="21.4057" y2="7.70974" gradientUnits="userSpaceOnUse">
<stop stop-color="#20709B"/>
<stop offset="1" stop-color="#1E4097"/>
</linearGradient>
</defs>
</svg>
