<svg width="18" height="18" viewBox="0 0 18 18" fill="none" xmlns="http://www.w3.org/2000/svg">
<g clip-path="url(#clip0_834_12535)">
<path d="M9 16.875C6.91142 16.875 4.90838 16.0453 3.43153 14.5685C1.95468 13.0916 1.125 11.0886 1.125 9C1.125 6.91142 1.95468 4.90838 3.43153 3.43153C4.90838 1.95468 6.91142 1.125 9 1.125C11.0886 1.125 13.0916 1.95468 14.5685 3.43153C16.0453 4.90838 16.875 6.91142 16.875 9C16.875 11.0886 16.0453 13.0916 14.5685 14.5685C13.0916 16.0453 11.0886 16.875 9 16.875ZM9 18C11.3869 18 13.6761 17.0518 15.364 15.364C17.0518 13.6761 18 11.3869 18 9C18 6.61305 17.0518 4.32387 15.364 2.63604C13.6761 0.948212 11.3869 0 9 0C6.61305 0 4.32387 0.948212 2.63604 2.63604C0.948212 4.32387 0 6.61305 0 9C0 11.3869 0.948212 13.6761 2.63604 15.364C4.32387 17.0518 6.61305 18 9 18Z" fill="url(#paint0_linear_834_12535)"/>
<path d="M5.22675 5.22678C5.279 5.17439 5.34107 5.13283 5.40941 5.10448C5.47775 5.07612 5.55101 5.06152 5.625 5.06152C5.69899 5.06152 5.77225 5.07612 5.84059 5.10448C5.90892 5.13283 5.971 5.17439 6.02325 5.22678L9 8.20465L11.9767 5.22678C12.029 5.17448 12.0911 5.13299 12.1595 5.10469C12.2278 5.07639 12.301 5.06182 12.375 5.06182C12.449 5.06182 12.5222 5.07639 12.5905 5.10469C12.6589 5.13299 12.7209 5.17448 12.7732 5.22678C12.8255 5.27908 12.867 5.34117 12.8953 5.4095C12.9236 5.47783 12.9382 5.55107 12.9382 5.62503C12.9382 5.69899 12.9236 5.77223 12.8953 5.84056C12.867 5.90889 12.8255 5.97098 12.7732 6.02328L9.79537 9.00003L12.7732 11.9768C12.8255 12.0291 12.867 12.0912 12.8953 12.1595C12.9236 12.2278 12.9382 12.3011 12.9382 12.375C12.9382 12.449 12.9236 12.5222 12.8953 12.5906C12.867 12.6589 12.8255 12.721 12.7732 12.7733C12.7209 12.8256 12.6589 12.8671 12.5905 12.8954C12.5222 12.9237 12.449 12.9382 12.375 12.9382C12.301 12.9382 12.2278 12.9237 12.1595 12.8954C12.0911 12.8671 12.029 12.8256 11.9767 12.7733L9 9.7954L6.02325 12.7733C5.97095 12.8256 5.90886 12.8671 5.84053 12.8954C5.7722 12.9237 5.69896 12.9382 5.625 12.9382C5.55104 12.9382 5.4778 12.9237 5.40947 12.8954C5.34113 12.8671 5.27905 12.8256 5.22675 12.7733C5.17445 12.721 5.13296 12.6589 5.10466 12.5906C5.07636 12.5222 5.06179 12.449 5.06179 12.375C5.06179 12.3011 5.07636 12.2278 5.10466 12.1595C5.13296 12.0912 5.17445 12.0291 5.22675 11.9768L8.20462 9.00003L5.22675 6.02328C5.17436 5.97103 5.1328 5.90895 5.10445 5.84062C5.07609 5.77228 5.06149 5.69902 5.06149 5.62503C5.06149 5.55104 5.07609 5.47778 5.10445 5.40944C5.1328 5.3411 5.17436 5.27903 5.22675 5.22678Z" fill="url(#paint1_linear_834_12535)"/>
</g>
<defs>
<linearGradient id="paint0_linear_834_12535" x1="-3.0552e-08" y1="2.4375" x2="20.3779" y2="6.74151" gradientUnits="userSpaceOnUse">
<stop stop-color="#20709B"/>
<stop offset="1" stop-color="#1E4097"/>
</linearGradient>
<linearGradient id="paint1_linear_834_12535" x1="5.06149" y1="6.12816" x2="13.9788" y2="8.01158" gradientUnits="userSpaceOnUse">
<stop stop-color="#20709B"/>
<stop offset="1" stop-color="#1E4097"/>
</linearGradient>
<clipPath id="clip0_834_12535">
<rect width="18" height="18" fill="white"/>
</clipPath>
</defs>
</svg>
