<svg width="17" height="15" viewBox="0 0 17 15" fill="none" xmlns="http://www.w3.org/2000/svg">
<path d="M15.5 6.9993H3.64L7.27 2.6393C7.43974 2.43508 7.5214 2.1718 7.49702 1.90738C7.47264 1.64295 7.34422 1.39904 7.14 1.2293C6.93578 1.05956 6.6725 0.977899 6.40808 1.00228C6.14365 1.02666 5.89974 1.15508 5.73 1.3593L0.73 7.3593C0.696361 7.40702 0.666279 7.45716 0.64 7.5093C0.64 7.5593 0.64 7.5893 0.57 7.6393C0.524674 7.75396 0.500941 7.87601 0.5 7.9993C0.500941 8.12259 0.524674 8.24464 0.57 8.3593C0.57 8.4093 0.57 8.4393 0.64 8.4893C0.666279 8.54144 0.696361 8.59158 0.73 8.6393L5.73 14.6393C5.82402 14.7522 5.94176 14.843 6.07485 14.9052C6.20793 14.9674 6.35309 14.9995 6.5 14.9993C6.73365 14.9998 6.96009 14.9184 7.14 14.7693C7.24126 14.6854 7.32496 14.5822 7.38631 14.4659C7.44766 14.3496 7.48546 14.2222 7.49754 14.0913C7.50961 13.9603 7.49573 13.8282 7.45669 13.7026C7.41764 13.577 7.3542 13.4603 7.27 13.3593L3.64 8.9993H15.5C15.7652 8.9993 16.0196 8.89394 16.2071 8.70641C16.3946 8.51887 16.5 8.26452 16.5 7.9993C16.5 7.73408 16.3946 7.47973 16.2071 7.29219C16.0196 7.10466 15.7652 6.9993 15.5 6.9993Z" fill="#100407"/>
</svg>
