<svg width="159" height="79" viewBox="0 0 159 79" fill="none" xmlns="http://www.w3.org/2000/svg">
<path d="M59.0263 101.402C55.4173 101.843 52.8494 105.126 53.2908 108.735C53.7321 112.344 57.0156 114.912 60.6246 114.471C64.2336 114.029 66.8014 110.746 66.3601 107.137C65.9187 103.528 62.6353 100.96 59.0263 101.402Z" fill="#F03738"/>
<path d="M37.0249 84.1951C36.5836 80.5861 39.1514 77.3027 42.7604 76.8613C46.3694 76.42 49.6529 78.9878 50.0942 82.5968C50.5356 86.2058 47.9677 89.4893 44.3587 89.9306C40.7497 90.372 37.4663 87.8041 37.0249 84.1951Z" fill="#F03738"/>
<path d="M52.633 49.1245C49.024 49.5658 46.4561 52.8493 46.8975 56.4583C47.3389 60.0672 50.6223 62.6351 54.2313 62.1937C57.8403 61.7524 60.4082 58.4689 59.9668 54.8599C59.5254 51.251 56.242 48.6831 52.633 49.1245Z" fill="#F03738"/>
<path d="M103.84 61.101C103.399 57.492 105.967 54.2086 109.576 53.7672C113.185 53.3259 116.468 55.8937 116.91 59.5027C117.351 63.1117 114.783 66.3952 111.174 66.8365C107.565 67.2779 104.282 64.71 103.84 61.101Z" fill="#F03738"/>
<path d="M79.4513 71.618C75.8423 72.0594 73.2745 75.3429 73.7158 78.9519C74.1572 82.5608 77.4407 85.1287 81.0496 84.6873C84.6586 84.246 87.2265 80.9625 86.7851 77.3535C86.3438 73.7445 83.0603 71.1767 79.4513 71.618Z" fill="#F03738"/>
<path d="M75.5043 46.3273C75.0629 42.7183 77.6308 39.4349 81.2398 38.9935C84.8488 38.5521 88.1322 41.12 88.5736 44.729C89.015 48.338 86.4471 51.6214 82.8381 52.0628C79.2291 52.5042 75.9457 49.9363 75.5043 46.3273Z" fill="#F03738"/>
<path fill-rule="evenodd" clip-rule="evenodd" d="M15.3315 77.4448C16.1906 42.0055 45.6163 13.9726 81.0557 14.8317C116.495 15.6908 144.528 45.1165 143.669 80.5559C143.614 82.8004 142.86 84.8508 141.47 86.5391C140.141 88.1538 138.42 89.2127 136.721 89.9216C133.416 91.3012 129.274 91.7339 125.174 91.7617C107.474 91.8814 92.0996 107.106 91.0949 125.062C90.8604 129.251 90.146 133.512 88.3432 136.861C87.4098 138.594 86.0985 140.243 84.262 141.437C82.3816 142.66 80.2255 143.224 77.9446 143.169C42.5052 142.31 14.4724 112.884 15.3315 77.4448ZM80.8163 24.7038C50.8292 23.9769 25.9305 47.697 25.2036 77.6842C24.4767 107.671 48.1968 132.57 78.1839 133.297C78.6322 133.308 78.7981 133.211 78.8793 133.158C79.0044 133.077 79.2943 132.837 79.6486 132.179C80.4212 130.744 81.028 128.216 81.2353 124.51C82.5154 101.634 101.913 82.0438 125.108 81.8869C128.808 81.8618 131.405 81.4401 132.917 80.8087C133.451 80.5858 133.701 80.3972 133.797 80.3115C134.521 50.3266 110.802 25.4307 80.8163 24.7038Z" fill="#F03738"/>
</svg>
