<svg width="26" height="26" viewBox="0 0 26 26" fill="none" xmlns="http://www.w3.org/2000/svg">
<path d="M13.0001 11.2285C13.5869 11.2285 14.0626 11.7042 14.0626 12.291V19.3744C14.0626 19.9612 13.5869 20.4369 13.0001 20.4369C12.4133 20.4369 11.9376 19.9612 11.9376 19.3744V12.291C11.9376 11.7042 12.4133 11.2285 13.0001 11.2285Z" fill="black"/>
<path d="M13.0001 8.74935C13.7825 8.74935 14.4167 8.11509 14.4167 7.33268C14.4167 6.55028 13.7825 5.91602 13.0001 5.91602C12.2177 5.91602 11.5834 6.55028 11.5834 7.33268C11.5834 8.11509 12.2177 8.74935 13.0001 8.74935Z" fill="black"/>
<path fill-rule="evenodd" clip-rule="evenodd" d="M0.604248 12.9993C0.604248 6.15332 6.15405 0.603516 13.0001 0.603516C19.8461 0.603516 25.3959 6.15332 25.3959 12.9993C25.3959 19.8454 19.8461 25.3952 13.0001 25.3952C6.15405 25.3952 0.604248 19.8454 0.604248 12.9993ZM13.0001 2.72852C7.32766 2.72852 2.72925 7.32692 2.72925 12.9993C2.72925 18.6718 7.32766 23.2702 13.0001 23.2702C18.6725 23.2702 23.2709 18.6718 23.2709 12.9993C23.2709 7.32692 18.6725 2.72852 13.0001 2.72852Z" fill="black"/>
</svg>
