<svg width="25" height="25" viewBox="0 0 25 25" fill="none" xmlns="http://www.w3.org/2000/svg">
<path fill-rule="evenodd" clip-rule="evenodd" d="M14.75 6C14.75 4.20507 16.2051 2.75 18 2.75C19.7949 2.75 21.25 4.20507 21.25 6C21.25 7.79493 19.7949 9.25 18 9.25C17.0404 9.25 16.1779 8.83409 15.583 8.1727L12.8657 9.65487L9.82515 11.3923C10.0955 11.8664 10.25 12.4152 10.25 13C10.25 13.2963 10.2103 13.5834 10.136 13.8562L15.583 16.8273C16.1779 16.1659 17.0404 15.75 18 15.75C19.7949 15.75 21.25 17.2051 21.25 19C21.25 20.7949 19.7949 22.25 18 22.25C16.2051 22.25 14.75 20.7949 14.75 19C14.75 18.7036 14.7897 18.4166 14.864 18.1438L9.41704 15.1727C8.82212 15.8341 7.95963 16.25 7 16.25C5.20507 16.25 3.75 14.7949 3.75 13C3.75 11.2051 5.20507 9.75 7 9.75C7.65068 9.75 8.2567 9.94122 8.76492 10.2705L12.1343 8.34514L14.864 6.85625C14.7897 6.58344 14.75 6.29635 14.75 6ZM18 4.25C17.0335 4.25 16.25 5.0335 16.25 6C16.25 6.9665 17.0335 7.75 18 7.75C18.9665 7.75 19.75 6.9665 19.75 6C19.75 5.0335 18.9665 4.25 18 4.25ZM7 11.25C6.0335 11.25 5.25 12.0335 5.25 13C5.25 13.9665 6.0335 14.75 7 14.75C7.9665 14.75 8.75 13.9665 8.75 13C8.75 12.0335 7.9665 11.25 7 11.25ZM16.25 19C16.25 18.0335 17.0335 17.25 18 17.25C18.9665 17.25 19.75 18.0335 19.75 19C19.75 19.9665 18.9665 20.75 18 20.75C17.0335 20.75 16.25 19.9665 16.25 19Z" fill="url(#paint0_linear_1449_16014)"/>
<defs>
<linearGradient id="paint0_linear_1449_16014" x1="3.75" y1="5.39063" x2="23.7279" y2="9.17738" gradientUnits="userSpaceOnUse">
<stop stop-color="#20709B"/>
<stop offset="1" stop-color="#1E4097"/>
</linearGradient>
</defs>
</svg>
