<svg width="16" height="16" viewBox="0 0 16 16" fill="none" xmlns="http://www.w3.org/2000/svg">
<path d="M5.02038 4.35355C5.21564 4.15829 5.21564 3.84171 5.02038 3.64645C4.82512 3.45118 4.50854 3.45118 4.31328 3.64645L2.97994 4.97978C2.78468 5.17504 2.78468 5.49162 2.97994 5.68689L4.31328 7.02022C4.50854 7.21548 4.82512 7.21548 5.02038 7.02022C5.21564 6.82496 5.21564 6.50838 5.02038 6.31311L4.5406 5.83333H11.3335C11.6096 5.83333 11.8335 5.60948 11.8335 5.33333C11.8335 5.05719 11.6096 4.83333 11.3335 4.83333H4.5406L5.02038 4.35355Z" fill="white"/>
<path d="M10.9799 8.97978C10.7847 9.17504 10.7847 9.49163 10.9799 9.68689L11.4597 10.1667H4.66683C4.39069 10.1667 4.16683 10.3905 4.16683 10.6667C4.16683 10.9428 4.39069 11.1667 4.66683 11.1667H11.4597L10.9799 11.6464C10.7847 11.8417 10.7847 12.1583 10.9799 12.3536C11.1752 12.5488 11.4918 12.5488 11.687 12.3536L13.0204 11.0202C13.2156 10.825 13.2156 10.5084 13.0204 10.3131L11.687 8.97978C11.4918 8.78452 11.1752 8.78452 10.9799 8.97978Z" fill="white"/>
</svg>
