<svg width="52" height="48" viewBox="0 0 52 48" fill="none" xmlns="http://www.w3.org/2000/svg">
<path d="M42.8772 0H9.12281C4.08442 0 0 4.13275 0 9.23077V38.7692C0 43.8672 4.08442 48 9.12281 48H42.8772C47.9157 48 52 43.8672 52 38.7692V9.23077C52 4.13275 47.9157 0 42.8772 0Z" fill="url(#paint0_linear_1340_13091)"/>
<path d="M12.7817 32.7801L12.7798 28.9486L38.8037 28.9355C38.8048 31.0516 37.0922 32.7678 34.9786 32.7689L12.7817 32.7801Z" fill="white"/>
<path d="M26.9378 24.7273C26.9383 25.7853 26.082 26.6435 25.0252 26.644C23.9684 26.6445 23.1112 25.7872 23.1107 24.7292L23.1099 23.0051C23.1089 20.9948 24.7359 19.3644 26.7438 19.3634L26.9351 19.3633L26.9378 24.7273Z" fill="white"/>
<path d="M33.0609 24.7244C33.0615 25.7824 32.2052 26.6406 31.1484 26.6411C30.0915 26.6416 29.2344 25.7843 29.2339 24.7263L29.2314 19.7455C29.2304 17.6294 30.943 15.9132 33.0566 15.9121L33.0609 24.7244Z" fill="white"/>
<path d="M39.1842 24.7215C39.1847 25.7796 38.3284 26.6376 37.2716 26.6382C36.2148 26.6387 35.3577 25.7814 35.3572 24.7235L35.353 16.2943C35.352 14.1783 37.0646 12.462 39.1782 12.4609L39.1842 24.7215Z" fill="white"/>
<defs>
<linearGradient id="paint0_linear_1340_13091" x1="2.13333e-08" y1="6.49998" x2="58.4364" y2="19.8708" gradientUnits="userSpaceOnUse">
<stop stop-color="#20709B"/>
<stop offset="1" stop-color="#1E4097"/>
</linearGradient>
</defs>
</svg>
