<svg width="20" height="20" viewBox="0 0 20 20" fill="none" xmlns="http://www.w3.org/2000/svg">
<path d="M7.50016 2.70898C4.8538 2.70898 2.7085 4.85429 2.7085 7.50065V13.423C2.7085 13.7682 2.98832 14.048 3.3335 14.048C3.67867 14.048 3.9585 13.7682 3.9585 13.423V7.50065C3.9585 5.54464 5.54415 3.95898 7.50016 3.95898H13.3442C13.6894 3.95898 13.9692 3.67916 13.9692 3.33398C13.9692 2.98881 13.6894 2.70898 13.3442 2.70898H7.50016Z" fill="url(#paint0_linear_663_12357)"/>
<path fill-rule="evenodd" clip-rule="evenodd" d="M15.3356 5.6617C12.6348 5.35985 9.86552 5.35985 7.16473 5.6617C6.39533 5.74769 5.77705 6.35319 5.68637 7.12855C5.36605 9.86728 5.36605 12.634 5.68637 15.3728C5.77705 16.1481 6.39533 16.7536 7.16473 16.8396C9.86552 17.1415 12.6348 17.1415 15.3356 16.8396C16.105 16.7536 16.7233 16.1481 16.814 15.3728C17.1343 12.634 17.1343 9.86728 16.814 7.12855C16.7233 6.35319 16.105 5.74769 15.3356 5.6617ZM7.30357 6.90397C9.91209 6.61243 12.5883 6.61243 15.1968 6.90397C15.3946 6.92607 15.5501 7.08249 15.5724 7.27376C15.8815 9.91601 15.8815 12.5853 15.5724 15.2275C15.5501 15.4188 15.3946 15.5752 15.1968 15.5973C12.5883 15.8889 9.91209 15.8889 7.30357 15.5973C7.10578 15.5752 6.95027 15.4188 6.9279 15.2275C6.61887 12.5853 6.61887 9.91601 6.9279 7.27376C6.95027 7.08249 7.10578 6.92607 7.30357 6.90397Z" fill="url(#paint1_linear_663_12357)"/>
<defs>
<linearGradient id="paint0_linear_663_12357" x1="2.7085" y1="4.65316" x2="18.9505" y2="8.08093" gradientUnits="userSpaceOnUse">
<stop stop-color="#20709B"/>
<stop offset="1" stop-color="#1E4097"/>
</linearGradient>
<linearGradient id="paint1_linear_663_12357" x1="2.7085" y1="4.65316" x2="18.9505" y2="8.08093" gradientUnits="userSpaceOnUse">
<stop stop-color="#20709B"/>
<stop offset="1" stop-color="#1E4097"/>
</linearGradient>
</defs>
</svg>
