<svg width="15" height="16" viewBox="0 0 15 16" fill="none" xmlns="http://www.w3.org/2000/svg">
<path d="M4.70646 4.58146C4.88951 4.3984 4.88951 4.1016 4.70646 3.91854C4.5234 3.73549 4.2266 3.73549 4.04354 3.91854L2.79354 5.16854C2.61049 5.3516 2.61049 5.6484 2.79354 5.83146L4.04354 7.08146C4.2266 7.26451 4.5234 7.26451 4.70646 7.08146C4.88951 6.8984 4.88951 6.6016 4.70646 6.41854L4.25666 5.96875H10.625C10.8839 5.96875 11.0938 5.75888 11.0938 5.5C11.0938 5.24112 10.8839 5.03125 10.625 5.03125H4.25666L4.70646 4.58146Z" fill="#27272A"/>
<path d="M10.2935 8.91854C10.1105 9.1016 10.1105 9.3984 10.2935 9.58146L10.7433 10.0312H4.375C4.11612 10.0312 3.90625 10.2411 3.90625 10.5C3.90625 10.7589 4.11612 10.9688 4.375 10.9688H10.7433L10.2935 11.4185C10.1105 11.6016 10.1105 11.8984 10.2935 12.0815C10.4766 12.2645 10.7734 12.2645 10.9565 12.0815L12.2065 10.8315C12.3895 10.6484 12.3895 10.3516 12.2065 10.1685L10.9565 8.91854C10.7734 8.73549 10.4766 8.73549 10.2935 8.91854Z" fill="#27272A"/>
</svg>
