<svg width="20" height="20" viewBox="0 0 20 20" fill="none" xmlns="http://www.w3.org/2000/svg">
<path d="M10.0002 8.95801C10.3453 8.95801 10.6252 9.23783 10.6252 9.58301V13.7497C10.6252 14.0949 10.3453 14.3747 10.0002 14.3747C9.65498 14.3747 9.37516 14.0949 9.37516 13.7497V9.58301C9.37516 9.23783 9.65498 8.95801 10.0002 8.95801Z" fill="#F4F4F5"/>
<path d="M10.0002 7.49967C10.4604 7.49967 10.8335 7.12658 10.8335 6.66634C10.8335 6.2061 10.4604 5.83301 10.0002 5.83301C9.53993 5.83301 9.16683 6.2061 9.16683 6.66634C9.16683 7.12658 9.53993 7.49967 10.0002 7.49967Z" fill="#F4F4F5"/>
<path fill-rule="evenodd" clip-rule="evenodd" d="M2.7085 9.99967C2.7085 5.9726 5.97309 2.70801 10.0002 2.70801C14.0272 2.70801 17.2918 5.9726 17.2918 9.99967C17.2918 14.0268 14.0272 17.2913 10.0002 17.2913C5.97309 17.2913 2.7085 14.0268 2.7085 9.99967ZM10.0002 3.95801C6.66344 3.95801 3.9585 6.66295 3.9585 9.99967C3.9585 13.3364 6.66344 16.0413 10.0002 16.0413C13.3369 16.0413 16.0418 13.3364 16.0418 9.99967C16.0418 6.66295 13.3369 3.95801 10.0002 3.95801Z" fill="#F4F4F5"/>
</svg>
