<svg width="28" height="28" viewBox="0 0 28 28" fill="none" xmlns="http://www.w3.org/2000/svg">
<path fill-rule="evenodd" clip-rule="evenodd" d="M20.2102 5.76874C21.3061 5.40809 22.2241 6.51303 21.8553 7.51048L21.736 7.83314C19.9172 12.753 17.669 17.488 15.0186 21.9808C14.3584 23.1 12.7813 22.6296 12.6314 21.466L11.9782 16.3966C11.9117 15.8805 11.5302 15.4815 11.0631 15.3913L6.17679 14.4481C4.99666 14.2204 4.71538 12.6074 5.78844 12.0163C10.2941 9.53453 15.0139 7.47875 19.8905 5.87393L20.2102 5.76874ZM20.4178 7.22433L20.343 7.24895C15.6735 8.7856 11.1502 10.7432 6.82503 13.099L11.3375 13.97C12.4403 14.1829 13.2705 15.099 13.4139 16.2116L14.0101 20.8388C16.5131 16.542 18.644 12.0223 20.3783 7.33118L20.4178 7.22433Z" fill="#FFFEF9"/>
</svg>
