<svg width="15" height="16" viewBox="0 0 15 16" fill="none" xmlns="http://www.w3.org/2000/svg">
<path fill-rule="evenodd" clip-rule="evenodd" d="M8.90625 3.9375C8.90625 2.81567 9.81567 1.90625 10.9375 1.90625C12.0593 1.90625 12.9688 2.81567 12.9688 3.9375C12.9688 5.05933 12.0593 5.96875 10.9375 5.96875C10.3377 5.96875 9.79868 5.70881 9.42685 5.29544L7.72854 6.22179L5.82822 7.30769C5.9972 7.604 6.09375 7.94698 6.09375 8.3125C6.09375 8.49772 6.06896 8.67715 6.02252 8.84765L9.42686 10.7046C9.79868 10.2912 10.3377 10.0312 10.9375 10.0312C12.0593 10.0312 12.9688 10.9407 12.9688 12.0625C12.9688 13.1843 12.0593 14.0938 10.9375 14.0938C9.81567 14.0938 8.90625 13.1843 8.90625 12.0625C8.90625 11.8773 8.93104 11.6978 8.97749 11.5273L5.57315 9.67043C5.20132 10.0838 4.66227 10.3438 4.0625 10.3438C2.94067 10.3438 2.03125 9.43433 2.03125 8.3125C2.03125 7.19067 2.94067 6.28125 4.0625 6.28125C4.46917 6.28125 4.84793 6.40076 5.16558 6.60658L7.27147 5.40321L8.97749 4.47265C8.93104 4.30215 8.90625 4.12272 8.90625 3.9375ZM10.9375 2.84375C10.3334 2.84375 9.84375 3.33344 9.84375 3.9375C9.84375 4.54156 10.3334 5.03125 10.9375 5.03125C11.5416 5.03125 12.0312 4.54156 12.0312 3.9375C12.0312 3.33344 11.5416 2.84375 10.9375 2.84375ZM4.0625 7.21875C3.45844 7.21875 2.96875 7.70844 2.96875 8.3125C2.96875 8.91656 3.45844 9.40625 4.0625 9.40625C4.66656 9.40625 5.15625 8.91656 5.15625 8.3125C5.15625 7.70844 4.66656 7.21875 4.0625 7.21875ZM9.84375 12.0625C9.84375 11.4584 10.3334 10.9688 10.9375 10.9688C11.5416 10.9688 12.0312 11.4584 12.0312 12.0625C12.0312 12.6666 11.5416 13.1562 10.9375 13.1562C10.3334 13.1562 9.84375 12.6666 9.84375 12.0625Z" fill="#71717A"/>
</svg>
